<?xml version="1.0" standalone="no"?>
<!DOCTYPE svg PUBLIC "-//W3C//DTD SVG 20010904//EN"
 "http://www.w3.org/TR/2001/REC-SVG-20010904/DTD/svg10.dtd">
<svg version="1.0" xmlns="http://www.w3.org/2000/svg"
 width="260.000000pt" height="260.000000pt" viewBox="0 0 260.000000 260.000000"
 preserveAspectRatio="xMidYMid meet">
<metadata>
Created by potrace 1.11, written by Peter Selinger 2001-2013
</metadata>
<g transform="translate(0.000000,260.000000) scale(0.100000,-0.100000)"
fill="#000000" stroke="none">
<path d="M633 1905 c-94 -95 -180 -178 -190 -183 -10 -5 -38 -10 -63 -11 -76
-3 -164 -21 -190 -39 -14 -10 -37 -24 -52 -31 -76 -39 -77 -130 -5 -283 26
-54 49 -108 51 -120 11 -54 16 -73 25 -102 5 -17 9 -38 9 -46 0 -8 3 -46 6
-85 3 -38 8 -99 11 -135 2 -36 7 -78 10 -95 7 -40 66 -167 84 -181 8 -6 11
-18 8 -27 -4 -11 5 -28 25 -48 27 -26 33 -28 40 -15 13 23 31 21 19 -3 -8 -15
-5 -24 14 -45 28 -31 40 -32 54 -9 9 17 11 17 24 -1 11 -15 22 -18 57 -13 23
3 49 12 57 20 13 13 12 17 -4 33 -22 21 -62 78 -78 109 -6 11 -12 60 -13 109
-2 85 10 138 55 246 3 8 7 20 9 27 1 7 12 44 24 82 12 38 20 75 19 83 -2 7 0
22 4 33 3 11 9 34 12 50 9 46 10 47 29 87 10 20 24 42 32 49 8 6 14 16 14 21
0 8 36 64 50 78 3 3 18 24 33 47 55 86 327 343 327 309 0 -2 4 -26 10 -54 16
-85 27 -194 36 -362 9 -173 14 -236 21 -280 13 -90 6 -341 -10 -367 -5 -7 -6
-13 -3 -13 2 0 -4 -30 -15 -67 -34 -119 -11 -211 54 -215 17 0 43 -2 57 -3
117 -10 280 -13 309 -5 57 15 203 35 236 32 40 -3 101 -15 115 -22 34 -18 125
-22 335 -15 197 7 216 9 226 26 16 31 -4 57 -43 54 -18 -2 -46 4 -63 13 -16 9
-48 16 -70 17 -22 0 -60 10 -85 22 -25 12 -85 40 -134 63 -49 22 -104 52 -122
65 -18 14 -37 25 -42 25 -6 0 -12 4 -14 8 -1 4 -34 21 -72 37 -101 43 -139 75
-182 152 -70 124 -83 182 -87 401 -1 50 0 92 3 92 3 0 6 37 7 83 2 111 11 297
18 377 3 36 7 86 9 113 1 26 5 50 9 53 3 3 3 12 0 20 -4 12 -73 14 -422 14
l-416 0 -172 -175z"/>
</g>
</svg>
